<svg width="211" height="35" viewBox="0 0 211 35" fill="none" xmlns="http://www.w3.org/2000/svg">
<path d="M16.5428 33.5526V30.3606C16.3988 30.6806 16.0308 31.1446 15.4388 31.7526C14.8628 32.3606 14.0948 32.9126 13.1348 33.4086C12.1748 33.8886 11.0548 34.1286 9.77477 34.1286C7.85477 34.1286 6.17477 33.6646 4.73477 32.7366C3.29477 31.7926 2.17477 30.5366 1.37477 28.9686C0.57477 27.3846 0.17477 25.6326 0.17477 23.7126C0.17477 21.7926 0.57477 20.0486 1.37477 18.4806C2.17477 16.8966 3.29477 15.6326 4.73477 14.6886C6.17477 13.7446 7.85477 13.2726 9.77477 13.2726C11.0068 13.2726 12.0868 13.4726 13.0148 13.8726C13.9428 14.2566 14.6948 14.7206 15.2708 15.2646C15.8468 15.7926 16.2468 16.2806 16.4708 16.7286V13.8486H23.7188V33.5526H16.5428ZM7.32677 23.7126C7.32677 24.6086 7.53477 25.4166 7.95077 26.1366C8.36677 26.8406 8.91877 27.3926 9.60677 27.7926C10.3108 28.1926 11.0868 28.3926 11.9348 28.3926C12.8148 28.3926 13.5908 28.1926 14.2628 27.7926C14.9348 27.3926 15.4628 26.8406 15.8468 26.1366C16.2468 25.4166 16.4468 24.6086 16.4468 23.7126C16.4468 22.8166 16.2468 22.0166 15.8468 21.3126C15.4628 20.5926 14.9348 20.0326 14.2628 19.6326C13.5908 19.2166 12.8148 19.0086 11.9348 19.0086C11.0868 19.0086 10.3108 19.2166 9.60677 19.6326C8.91877 20.0326 8.36677 20.5926 7.95077 21.3126C7.53477 22.0166 7.32677 22.8166 7.32677 23.7126ZM41.9085 13.2726C43.2845 13.2726 44.6285 13.5526 45.9405 14.1126C47.2525 14.6726 48.3325 15.5606 49.1805 16.7766C50.0285 17.9766 50.4525 19.5606 50.4525 21.5286V33.5526H43.1325V22.7286C43.1325 21.3206 42.7965 20.2646 42.1245 19.5606C41.4525 18.8406 40.5725 18.4806 39.4845 18.4806C38.7645 18.4806 38.0845 18.6726 37.4445 19.0566C36.8205 19.4246 36.3085 19.9526 35.9085 20.6406C35.5245 21.3126 35.3325 22.0886 35.3325 22.9686V33.5526H28.0365V13.8486H35.3325V16.7526C35.5245 16.2246 35.9245 15.6966 36.5325 15.1686C37.1565 14.6246 37.9325 14.1766 38.8605 13.8246C39.8045 13.4566 40.8205 13.2726 41.9085 13.2726ZM69.9803 33.5526V30.3606C69.8363 30.6806 69.4683 31.1446 68.8763 31.7526C68.3003 32.3606 67.5323 32.9126 66.5723 33.4086C65.6123 33.8886 64.4923 34.1286 63.2123 34.1286C61.2923 34.1286 59.6123 33.6646 58.1723 32.7366C56.7323 31.7926 55.6123 30.5366 54.8123 28.9686C54.0123 27.3846 53.6123 25.6326 53.6123 23.7126C53.6123 21.7926 54.0123 20.0486 54.8123 18.4806C55.6123 16.8966 56.7323 15.6326 58.1723 14.6886C59.6123 13.7446 61.2923 13.2726 63.2123 13.2726C64.4443 13.2726 65.5243 13.4726 66.4523 13.8726C67.3803 14.2566 68.1323 14.7206 68.7083 15.2646C69.2843 15.7926 69.6843 16.2806 69.9083 16.7286V13.8486H77.1563V33.5526H69.9803ZM60.7643 23.7126C60.7643 24.6086 60.9723 25.4166 61.3883 26.1366C61.8043 26.8406 62.3563 27.3926 63.0443 27.7926C63.7483 28.1926 64.5243 28.3926 65.3723 28.3926C66.2523 28.3926 67.0283 28.1926 67.7003 27.7926C68.3723 27.3926 68.9003 26.8406 69.2843 26.1366C69.6843 25.4166 69.8843 24.6086 69.8843 23.7126C69.8843 22.8166 69.6843 22.0166 69.2843 21.3126C68.9003 20.5926 68.3723 20.0326 67.7003 19.6326C67.0283 19.2166 66.2523 19.0086 65.3723 19.0086C64.5243 19.0086 63.7483 19.2166 63.0443 19.6326C62.3563 20.0326 61.8043 20.5926 61.3883 21.3126C60.9723 22.0166 60.7643 22.8166 60.7643 23.7126ZM95.346 13.2726C96.722 13.2726 98.066 13.5526 99.378 14.1126C100.69 14.6726 101.77 15.5606 102.618 16.7766C103.466 17.9766 103.89 19.5606 103.89 21.5286V33.5526H96.57V22.7286C96.57 21.3206 96.234 20.2646 95.562 19.5606C94.89 18.8406 94.01 18.4806 92.922 18.4806C92.202 18.4806 91.522 18.6726 90.882 19.0566C90.258 19.4246 89.746 19.9526 89.346 20.6406C88.962 21.3126 88.77 22.0886 88.77 22.9686V33.5526H81.474V13.8486H88.77V16.7526C88.962 16.2246 89.362 15.6966 89.97 15.1686C90.594 14.6246 91.37 14.1766 92.298 13.8246C93.242 13.4566 94.258 13.2726 95.346 13.2726ZM123.418 33.5526V30.3606C123.274 30.6806 122.906 31.1446 122.314 31.7526C121.738 32.3606 120.97 32.9126 120.01 33.4086C119.05 33.8886 117.93 34.1286 116.65 34.1286C114.73 34.1286 113.05 33.6646 111.61 32.7366C110.17 31.7926 109.05 30.5366 108.25 28.9686C107.45 27.3846 107.05 25.6326 107.05 23.7126C107.05 21.7926 107.45 20.0486 108.25 18.4806C109.05 16.8966 110.17 15.6326 111.61 14.6886C113.05 13.7446 114.73 13.2726 116.65 13.2726C117.882 13.2726 118.962 13.4726 119.89 13.8726C120.818 14.2566 121.57 14.7206 122.146 15.2646C122.722 15.7926 123.122 16.2806 123.346 16.7286V13.8486H130.594V33.5526H123.418ZM114.202 23.7126C114.202 24.6086 114.41 25.4166 114.826 26.1366C115.242 26.8406 115.794 27.3926 116.482 27.7926C117.186 28.1926 117.962 28.3926 118.81 28.3926C119.69 28.3926 120.466 28.1926 121.138 27.7926C121.81 27.3926 122.338 26.8406 122.722 26.1366C123.122 25.4166 123.322 24.6086 123.322 23.7126C123.322 22.8166 123.122 22.0166 122.722 21.3126C122.338 20.5926 121.81 20.0326 121.138 19.6326C120.466 19.2166 119.69 19.0086 118.81 19.0086C117.962 19.0086 117.186 19.2166 116.482 19.6326C115.794 20.0326 115.242 20.5926 114.826 21.3126C114.41 22.0166 114.202 22.8166 114.202 23.7126ZM140.12 34.1286C138.936 34.1286 137.912 33.7046 137.048 32.8566C136.2 31.9926 135.776 30.9686 135.776 29.7846C135.776 28.5686 136.2 27.5366 137.048 26.6886C137.912 25.8246 138.936 25.3926 140.12 25.3926C141.336 25.3926 142.368 25.8246 143.216 26.6886C144.064 27.5366 144.488 28.5686 144.488 29.7846C144.488 30.9686 144.064 31.9926 143.216 32.8566C142.368 33.7046 141.336 34.1286 140.12 34.1286ZM158.634 13.2726C159.93 13.2726 161.114 13.3846 162.186 13.6086C163.258 13.8166 164.154 14.0566 164.874 14.3286C165.61 14.6006 166.082 14.8246 166.29 15.0006L163.914 19.2966C163.61 19.0726 163.042 18.7846 162.21 18.4326C161.394 18.0806 160.482 17.9046 159.474 17.9046C158.706 17.9046 158.058 18.0246 157.53 18.2646C157.002 18.4886 156.738 18.8486 156.738 19.3446C156.738 19.8406 157.026 20.2406 157.602 20.5446C158.194 20.8326 159.042 21.0886 160.146 21.3126C161.106 21.5046 162.082 21.8086 163.074 22.2246C164.066 22.6406 164.89 23.2566 165.546 24.0726C166.218 24.8726 166.554 25.9446 166.554 27.2886C166.554 28.6646 166.258 29.8006 165.666 30.6966C165.074 31.5926 164.29 32.2886 163.314 32.7846C162.338 33.2806 161.282 33.6246 160.146 33.8166C159.01 34.0246 157.906 34.1286 156.834 34.1286C155.33 34.1286 154.018 33.9926 152.898 33.7206C151.794 33.4486 150.898 33.1366 150.21 32.7846C149.522 32.4326 149.042 32.1526 148.77 31.9446L151.122 27.1446C151.538 27.4966 152.218 27.8966 153.162 28.3446C154.106 28.7766 155.106 28.9926 156.162 28.9926C157.186 28.9926 157.978 28.8406 158.538 28.5366C159.098 28.2326 159.378 27.8326 159.378 27.3366C159.378 26.9366 159.242 26.6166 158.97 26.3766C158.698 26.1366 158.314 25.9286 157.818 25.7526C157.322 25.5766 156.722 25.4166 156.018 25.2726C155.378 25.1446 154.698 24.9446 153.978 24.6726C153.258 24.4006 152.578 24.0326 151.938 23.5686C151.298 23.0886 150.778 22.4886 150.378 21.7686C149.978 21.0486 149.778 20.1766 149.778 19.1526C149.778 17.8406 150.202 16.7526 151.05 15.8886C151.898 15.0246 152.994 14.3766 154.338 13.9446C155.682 13.4966 157.114 13.2726 158.634 13.2726ZM168.419 13.8486H171.779V5.76064H179.003V13.8486H183.419V19.8486H179.003V25.3446C179.003 26.1606 179.123 26.8246 179.363 27.3366C179.603 27.8326 180.043 28.0806 180.683 28.0806C181.115 28.0806 181.483 27.9846 181.787 27.7926C182.091 27.6006 182.275 27.4726 182.339 27.4086L184.835 32.5926C184.723 32.6886 184.371 32.8646 183.779 33.1206C183.203 33.3766 182.467 33.6086 181.571 33.8166C180.675 34.0246 179.675 34.1286 178.571 34.1286C176.603 34.1286 174.979 33.5766 173.699 32.4726C172.419 31.3526 171.779 29.6326 171.779 27.3126V19.8486H168.419V13.8486ZM195.984 34.1286C194.08 34.1286 192.424 33.6646 191.016 32.7366C189.608 31.7926 188.512 30.5366 187.728 28.9686C186.96 27.3846 186.576 25.6326 186.576 23.7126C186.576 21.7926 186.96 20.0486 187.728 18.4806C188.512 16.8966 189.608 15.6326 191.016 14.6886C192.424 13.7446 194.08 13.2726 195.984 13.2726C197.248 13.2726 198.368 13.4726 199.344 13.8726C200.32 14.2566 201.112 14.7206 201.72 15.2646C202.328 15.7926 202.696 16.2806 202.824 16.7286V0.528642H210.12V33.5526H202.896V30.3606C202.592 30.9526 202.096 31.5446 201.408 32.1366C200.72 32.7126 199.912 33.1846 198.984 33.5526C198.056 33.9366 197.056 34.1286 195.984 34.1286ZM198.216 28.3926C199.096 28.3926 199.88 28.1926 200.568 27.7926C201.272 27.3926 201.824 26.8406 202.224 26.1366C202.624 25.4166 202.824 24.6086 202.824 23.7126C202.824 22.8166 202.624 22.0166 202.224 21.3126C201.824 20.5926 201.272 20.0326 200.568 19.6326C199.88 19.2166 199.096 19.0086 198.216 19.0086C197.368 19.0086 196.6 19.2166 195.912 19.6326C195.24 20.0326 194.704 20.5926 194.304 21.3126C193.92 22.0166 193.728 22.8166 193.728 23.7126C193.728 24.6086 193.92 25.4166 194.304 26.1366C194.704 26.8406 195.24 27.3926 195.912 27.7926C196.6 28.1926 197.368 28.3926 198.216 28.3926Z" fill="white"/>
</svg>
