<?xml version="1.0" encoding="UTF-8"?> <svg xmlns="http://www.w3.org/2000/svg" width="32" height="32" viewBox="0 0 32 32" fill="none"> <g clip-path="url(#clip0_673_13)"> <path fill-rule="evenodd" clip-rule="evenodd" d="M7.107 11.017L4.93773 14.508H2.99126V11.017H0V20.9804H2.99126V17.4379H4.93648L7.11775 20.9804H10.3836L7.31366 15.9796L10.385 11.017H7.107Z" fill="#FE4900"></path> <path fill-rule="evenodd" clip-rule="evenodd" d="M10.8301 20.9862H13.8213V17.4436H18.142V20.9622H21.1212V11.0193H18.142V14.5138H13.8213V11.0193H10.8301V20.9862Z" fill="#FE4900"></path> <path fill-rule="evenodd" clip-rule="evenodd" d="M23.6325 17.1693L23.6344 17.1702L23.6363 17.171H23.6364C24.0333 17.3411 24.4533 17.4255 24.8919 17.4255H29.0326V18.0747H21.6871V20.9806H28.7757C29.2143 20.9806 29.6343 20.8962 30.0313 20.7261C30.4206 20.5592 30.7638 20.3298 31.0564 20.0371C31.3471 19.7464 31.5764 19.4088 31.7437 19.0279V19.0278L31.7446 19.0259L31.7454 19.024C31.9155 18.627 31.9999 18.207 31.9999 17.7684C31.9999 17.3306 31.9158 16.9138 31.7446 16.523C31.5778 16.1345 31.3486 15.7919 31.0564 15.4997C30.7605 15.2038 30.4157 14.9939 30.0313 14.8291C29.6343 14.659 29.2143 14.5746 28.7757 14.5746H24.6469V13.9195H31.246V11.0137H24.8919C24.4533 11.0137 24.0333 11.098 23.6363 11.2682L23.6344 11.269L23.6325 11.2698L23.6325 11.2698C23.2514 11.4371 22.9139 11.6664 22.6232 11.9571C22.3305 12.2498 22.101 12.593 21.9342 12.9823C21.764 13.3793 21.6797 13.7993 21.6797 14.2379C21.6797 14.6757 21.7638 15.0925 21.935 15.4832C22.1035 15.8758 22.3343 16.1931 22.6232 16.482C22.9139 16.7728 23.2515 17.002 23.6325 17.1693Z" fill="#FE4900"></path> </g> <defs> <clipPath id="clip0_673_13"> <rect width="32" height="32" fill="white"></rect> </clipPath> </defs> </svg> 